# This file uses centimeters as units for non-parametric coordinates.

mtllib Asteroid.mtl
g default
v -0.712782 -0.865472 -1.629225
v 0.984453 0.160481 1.028791
v -0.749798 0.751038 -2.751559
v -0.700042 1.233550 4.636537
v -0.716198 1.574801 0.742477
v -2.690398 0.125672 -0.795391
v -0.718977 -1.003868 1.274655
v 0.739935 0.596132 2.406338
v -0.689579 1.816246 2.048694
v -2.360374 0.387153 1.419956
v 0.944782 0.287996 -0.630432
v -0.712785 -0.626352 -2.480471
v -2.491538 0.388417 -1.764709
v -0.712785 1.471432 -0.351882
v -0.000000 -1.090289 0.056857
v 0.000000 -0.672055 -1.834800
v -0.144143 0.830454 -2.953313
v 0.031630 1.692477 -0.187264
v 0.029023 1.639623 0.828175
v -0.051625 1.921794 2.144334
v -0.055622 1.212469 4.538752
v -0.000000 -0.580769 1.940576
v -1.413007 -0.634595 -2.467094
v -1.436837 -1.142294 -1.729828
v -1.354992 -0.944762 1.426872
v -1.421515 1.290226 4.768338
v -1.447119 1.713823 2.081182
v -1.412754 1.407533 0.686994
v -1.424621 1.292500 -0.340701
v -1.340213 0.711993 -2.634936
v -0.730353 0.152130 -2.910694
v -0.712785 -0.574730 -2.664249
v 0.000000 -0.526618 -2.599188
v 0.000000 0.165285 -2.830983
v 0.983334 0.506853 -2.058208
v 0.359668 0.745359 -2.585914
v 0.229086 0.147468 -2.847130
v 0.788673 0.011096 -2.262030
v 0.229086 -0.497258 -2.618531
v 0.900474 -0.254081 -0.990164
v 0.285274 -0.690346 -1.576387
v 0.832512 -0.238409 1.198409
v 0.396863 -0.939648 0.760632
v 0.652224 0.074196 2.440171
v 0.303312 -0.492899 2.268204
v -0.705626 0.661771 4.704167
v -0.715352 0.029110 4.293734
v -0.101427 0.619252 4.547501
v 0.012592 -0.021747 4.342430
v 0.204325 -0.001844 4.317879
v 0.585927 0.434649 3.845176
v 0.299453 0.593008 4.435993
v 0.815961 1.072027 4.022698
v 0.306934 1.144168 4.343870
v 0.171570 1.593112 -1.241635
v 0.841121 1.208651 -1.495449
v 0.376009 1.494500 -2.322743
v 1.045243 0.827067 0.827462
v 0.550083 1.715859 0.819461
v 0.908953 0.926406 -0.417045
v 0.328399 1.554510 -0.267441
v -0.712785 1.303139 -1.936500
v -0.712785 1.492378 -1.247111
v -0.090213 1.496170 -2.301024
v -0.067755 1.588302 -1.268560
v 0.214082 1.664503 4.283266
v 0.712785 1.531284 3.837025
v 0.196811 2.026747 3.692994
v -0.714801 1.847276 4.597437
v -0.712785 2.026747 3.692994
v -0.000000 2.026747 3.692994
v -0.139225 1.687957 4.278864
v 0.705974 1.150273 2.294291
v 0.202103 1.631960 2.119671
v -1.405544 -0.552655 -2.660800
v -1.318794 0.100684 -2.784761
v -1.651158 -0.353647 -2.564496
v -1.922556 -0.070241 -2.385160
v -1.649179 0.055789 -2.684567
v -2.131111 -0.223306 -2.115184
v -1.680003 -0.603859 -2.299650
v -2.271141 0.446420 -2.017654
v -1.731225 0.650258 -2.415156
v -1.422064 0.052261 4.259076
v -1.309932 0.678927 4.676228
v -2.149879 -0.364499 -1.556281
v -1.675975 -1.141120 -1.726176
v -2.657607 -0.440510 1.360466
v -1.836672 -1.004878 1.406379
v -1.655932 0.659090 4.663479
v -2.131343 0.549844 4.122329
v -1.607553 0.052261 4.259076
v -2.091842 0.940032 3.501300
v -1.696288 1.144317 4.321535
v -1.423036 1.396188 -1.246718
v -1.401741 1.200976 -1.993015
v -2.245509 0.761169 0.839750
v -1.633641 1.197040 0.733261
v -2.247517 0.924076 -0.723623
v -1.563425 1.266207 -0.344285
v -1.713294 1.070357 -1.810440
v -2.131343 0.925289 -1.471572
v -1.604647 1.396545 -1.236937
v -1.452560 1.757156 4.448151
v -1.422064 2.026747 3.692994
v -1.615369 2.026747 3.692994
v -2.227254 1.587879 3.875972
v -1.619160 1.685491 4.346870
v -2.419911 1.159379 1.778550
v -1.769266 1.567653 2.064289
v -1.920664 1.113791 -1.377718
v -1.973880 1.060928 -0.571888
v -2.000762 0.935518 0.797154
v -2.159653 1.322689 1.892845
v -1.982500 1.763426 3.802781
v 0.506346 1.400882 -1.368542
v 0.618676 1.240458 -0.342243
v 0.797663 1.271463 0.823461
v 0.454038 1.391117 2.206981
v 0.454798 1.779015 3.765009
v 0.508880 -0.243081 -2.440281
v 0.592874 -0.472214 -1.283275
v 0.614687 -0.589029 0.979520
v 0.477768 -0.209352 2.354188
v 0.395126 0.216402 4.081527
v -1.786857 -0.211944 -2.474828
v -1.905557 -0.413582 -2.207417
v -1.912927 -0.752810 -1.641229
v -2.247140 -0.722694 1.383423
v -1.869448 0.301052 4.190703
vt 0.655448 0.788644
vt 0.698058 0.796218
vt 0.744579 0.875746
vt 0.710824 0.876053
vt 0.658296 0.644626
vt 0.691828 0.662066
vt 0.740507 0.803219
vt 0.778591 0.874765
vt 0.800515 0.973060
vt 0.776293 0.992147
vt 0.675159 0.578254
vt 0.709065 0.590699
vt 0.725564 0.678390
vt 0.782515 0.788596
vt 0.835281 0.865700
vt 0.824214 0.953781
vt 0.841815 0.996537
vt 0.742387 0.545696
vt 0.741354 0.603440
vt 0.784332 0.692450
vt 0.895816 0.852353
vt 0.850518 0.768568
vt 0.890182 0.952209
vt 0.904586 0.993442
vt 0.814077 0.552334
vt 0.793847 0.609966
vt 0.853400 0.694598
vt 0.935099 0.942180
vt 0.900357 0.762644
vt 0.929045 0.845314
vt 0.963785 0.979487
vt 0.898388 0.566222
vt 0.868891 0.625652
vt 0.894101 0.691191
vt 0.966364 0.939980
vt 0.950675 0.757056
vt 0.400047 0.171567
vt 0.999372 0.937078
vt 0.935038 0.625796
vt 0.901337 0.626040
vt 0.934634 0.687802
vt 0.376828 0.144476
vt 0.432822 0.072712
vt 0.831705 0.451660
vt 0.813238 0.471262
vt 0.764478 0.452576
vt 0.802964 0.429123
vt 0.853912 0.468597
vt 0.840989 0.483462
vt 0.671626 0.414625
vt 0.606442 0.415102
vt 0.709548 0.279205
vt 0.751332 0.268086
vt 0.882431 0.402505
vt 0.843109 0.358628
vt 0.827583 0.498351
vt 0.876362 0.491174
vt 0.895947 0.419294
vt 0.422396 0.437927
vt 0.736257 0.079931
vt 0.769888 0.078804
vt 0.831062 0.227877
vt 0.925865 0.332155
vt 0.884625 0.244086
vt 0.077800 0.326530
vt 0.689974 0.439015
vt 0.675712 0.438121
vt 0.938775 0.375874
vt 0.702114 0.082061
vt 0.162683 0.518169
vt 0.822554 0.089179
vt 0.890073 0.174134
vt 0.912921 0.239871
vt 0.948034 0.317768
vt 0.972791 0.397393
vt 0.962801 0.366459
vt 0.105779 0.521718
vt 0.878507 0.051059
vt 0.912984 0.160510
vt 0.953788 0.232281
vt 0.184691 0.204688
vt 1.000000 0.351260
vt 0.051809 0.551026
vt 0.901465 0.040686
vt 0.946982 0.137213
vt 0.230344 0.159839
vt 0.194300 0.210301
vt 0.103180 0.557326
vt 0.052289 0.567095
vt 0.938025 0.024547
vt 0.281717 0.088735
vt 0.677042 0.493929
vt 0.644137 0.553680
vt 0.527249 0.565906
vt 0.620062 0.496017
vt 0.689162 0.493600
vt 0.691154 0.550041
vt 0.631319 0.578262
vt 0.494486 0.607849
vt 0.409818 0.594654
vt 0.448943 0.522406
vt 0.608885 0.433466
vt 0.694549 0.567915
vt 0.394782 0.622818
vt 0.263581 0.630983
vt 0.248455 0.575273
vt 0.427641 0.476026
vt 0.266611 0.645755
vt 0.234385 0.521278
vt 0.282382 0.187745
vt 0.336483 0.217547
vt 0.301735 0.265731
vt 0.243943 0.241377
vt 0.330878 0.123052
vt 0.369656 0.243784
vt 0.320756 0.285325
vt 0.261186 0.314462
vt 0.216794 0.287121
vt 0.387032 0.041006
vt 0.278084 0.323432
vt 0.190059 0.324424
vt 0.230514 0.364687
vt 0.167537 0.257809
vt 0.342225 0.008982
vt 0.065561 0.620822
vt 0.081268 0.667049
vt 0.257853 0.387855
vt 0.141603 0.298665
vt 0.171659 0.411720
vt 0.136432 0.380165
vt 0.091523 0.692976
vt 0.102541 0.349036
vt 0.091522 0.425840
vt 0.034414 0.478082
vt 0.000000 0.435158
vt 0.056210 0.394562
vt 0.131529 0.468135
vt 0.075692 0.517559
vt 0.142332 0.482743
vt 0.090164 0.528771
vt 0.200166 0.446945
vt 0.180221 0.592462
vt 0.196365 0.638396
vt 0.166449 0.545487
vt 0.207298 0.668937
vt 0.136263 0.658535
vt 0.124140 0.609907
vt 0.149919 0.686646
vt 0.961672 0.839683
vt 0.040094 0.706503
vt 0.002374 0.579738
vt 0.035425 0.691711
vt 0.014602 0.637527
vt 0.445466 0.081591
vt 0.330101 0.000000
vt 0.000000 0.564275
vt 0.255101 0.076437
vt 0.883055 0.000000
vt 0.981738 0.295095
vt 0.155381 0.250035
vt 0.205357 0.146181
vt 0.116491 0.282250
vt 0.819573 0.023018
vt 0.757869 0.031351
vt 0.667048 0.290379
vt 0.230884 0.507124
vt 0.725255 0.475406
vt 0.936696 0.450307
vt 0.793851 0.490989
vt 0.035276 0.377666
vt 0.701950 0.412388
vt 0.001716 0.405956
vn 0.159665 -0.942545 -0.293454
vn 0.214503 -0.954579 -0.206801
vn 0.121730 -0.992550 0.005075
vn 0.161733 -0.979343 -0.121367
vn -0.171090 0.975855 -0.135774
vn -0.023741 0.995280 -0.094092
vn -0.088311 0.995365 -0.038068
vn -0.208683 0.977663 -0.025027
vn 0.062151 0.989739 -0.128662
vn -0.101650 0.981430 -0.162671
vn 0.055945 -0.969151 0.240033
vn 0.061956 -0.987169 0.147172
vn 0.119115 -0.990143 -0.073672
vn 0.024658 -0.884056 -0.466730
vn 0.062225 -0.979373 0.192239
vn -0.308503 0.937708 -0.159781
vn -0.200217 0.960857 -0.191485
vn -0.251608 0.967763 -0.011293
vn -0.059870 -0.103508 -0.992825
vn 0.038735 -0.583421 -0.811246
vn -0.188242 -0.463299 -0.865979
vn -0.233315 -0.000892 -0.972401
vn 0.109618 -0.137532 -0.984413
vn 0.101077 -0.715040 -0.691738
vn 0.548624 -0.029068 -0.835564
vn 0.485582 -0.738586 -0.467654
vn 0.955942 0.089827 -0.279476
vn 0.660710 0.306371 -0.685273
vn 0.541940 0.689196 -0.480946
vn 0.886649 0.435197 -0.156388
vn 0.896112 -0.270959 -0.351518
vn 0.730256 -0.560510 -0.390583
vn 0.739448 -0.666081 -0.097743
vn 0.564574 -0.813097 -0.141880
vn 0.764854 -0.641228 0.061845
vn 0.449521 -0.889095 0.086259
vn 0.797644 -0.567196 0.205067
vn 0.439704 -0.862401 0.250847
vn 0.843229 -0.473415 0.254644
vn 0.499938 -0.772976 0.390602
vn 0.060418 -0.269848 0.961006
vn 0.031320 -0.901556 0.431526
vn 0.105582 -0.903198 0.416035
vn 0.176455 -0.188573 0.966076
vn -0.102377 -0.293989 0.950310
vn -0.002728 -0.900188 0.435493
vn 0.591265 -0.156553 0.791136
vn 0.916040 -0.339377 0.213760
vn 0.976135 -0.004909 0.217108
vn 0.570167 0.109361 0.814217
vn 0.895497 0.433072 0.102636
vn 0.425322 0.564746 0.707222
vn 0.343906 0.938114 -0.040879
vn -0.132803 0.872369 -0.470464
vn -0.132538 0.987758 -0.082272
vn 0.575873 0.816868 0.033107
vn 0.739277 0.671362 -0.052378
vn 0.965997 0.257670 -0.021368
vn 0.980789 0.189773 0.045157
vn 0.804129 0.594414 0.007009
vn 0.761242 0.648425 -0.007385
vn 0.946301 0.322195 0.026538
vn -0.252091 0.882994 -0.395945
vn -0.204764 0.975468 -0.080830
vn -0.220193 0.863991 -0.452807
vn -0.181917 0.979009 -0.091913
vn 0.568406 0.822748 -0.000322
vn 0.123363 0.991238 0.047217
vn 0.258970 0.694203 0.671578
vn 0.696121 0.717807 -0.012992
vn 0.085250 0.783230 0.615860
vn -0.035184 0.999324 0.010646
vn -0.124914 0.991770 -0.028074
vn -0.197265 0.766197 0.611579
vn -0.519712 -0.323444 -0.790748
vn -0.556194 0.093888 -0.825732
vn -0.714039 -0.007272 -0.700068
vn -0.682606 -0.311489 -0.661078
vn -0.766810 -0.506556 -0.394212
vn -0.838608 -0.406253 -0.362897
vn -0.743833 0.406556 -0.530494
vn -0.582695 0.505009 -0.636735
vn -0.735397 -0.668204 -0.112671
vn -0.855356 -0.501490 -0.129899
vn -0.650373 0.703230 -0.287199
vn -0.522710 0.731789 -0.437332
vn -0.686801 0.035068 0.725999
vn -0.345746 -0.843487 0.411084
vn -0.683940 -0.718251 0.127835
vn -0.917554 -0.389002 0.082291
vn -0.616333 -0.683005 0.391967
vn -0.955515 -0.061912 0.288371
vn -0.785801 0.076522 0.613727
vn -0.981891 0.064066 0.178286
vn -0.731502 0.287221 0.618393
vn -0.943300 0.210224 0.256887
vn -0.453216 0.889855 -0.052471
vn -0.543038 0.837794 0.056653
vn -0.517808 0.845552 -0.130066
vn -0.527768 0.837003 -0.144525
vn -0.500470 0.864237 0.051220
vn -0.524277 0.822124 -0.221914
vn -0.497284 0.841495 -0.211176
vn -0.568765 0.816137 -0.102111
vn -0.429658 0.900625 -0.065327
vn -0.534650 0.845068 -0.003126
vn 0.296313 0.179450 0.938081
vn 0.519450 0.848949 -0.097249
vn -0.071075 0.482020 -0.873273
vn 0.996939 -0.074100 -0.024931
vn 0.888007 -0.457521 -0.046026
vn -0.957118 0.220661 -0.187706
vn 0.911226 -0.373527 0.173621
vn 0.990121 -0.086402 0.110432
vn 0.611778 0.790551 -0.027518
vn -0.993166 0.109353 0.040776
vn -0.796829 0.604204 0.000276
vn -0.989697 0.140219 0.028951
vn -0.602810 -0.616840 -0.506091
vn -0.276020 0.593521 -0.756007
vn -0.383156 -0.910089 0.157891
vn -0.238893 0.183735 0.953505
vn 0.895592 -0.431548 0.108079
vn 0.990651 -0.112364 0.077368
vn 0.581613 0.813442 -0.006166
vn -0.998430 0.039656 -0.039562
vn -0.870999 0.490075 -0.034464
vn -0.384173 -0.920811 -0.067216
vn -0.244008 0.545093 -0.802081
vn 0.152286 0.159265 0.975420
s 1
g pCube1
usemtl initialShadingGroup
f 12/92/1 16/93/2 15/94/3 1/95/4
f 5/110/5 19/111/6 18/112/7 14/113/8
f 20/42/9 19/111/6 5/110/5 9/114/10
f 1/95/4 15/94/3 22/100/11 7/101/12
f 24/102/13 23/67/14 12/92/1 1/95/4
f 1/95/4 7/101/12 25/107/15 24/102/13
f 28/86/16 27/91/17 9/114/10 5/110/5
f 5/110/5 14/113/8 29/87/18 28/86/16
f 31/133/19 32/134/20 75/135/21 76/136/22
f 32/134/20 31/133/19 34/137/23 33/138/24
f 33/138/24 34/137/23 37/139/25 39/140/26
f 35/26/27 36/25/28 57/32/29 56/33/30
f 36/25/28 35/26/27 38/19/31 37/18/25
f 39/11/26 121/12/32 122/6/33 41/5/34
f 41/5/34 122/6/33 123/2/35 43/1/36
f 43/1/36 123/2/35 124/3/37 45/4/38
f 45/4/38 124/3/37 125/9/39 50/10/40
f 46/142/41 47/106/42 49/105/43 48/143/44
f 47/106/42 46/142/41 85/144/45 84/109/46
f 48/143/44 49/105/43 50/108/40 52/145/47
f 52/17/47 51/16/48 53/23/49 54/24/50
f 54/24/50 53/23/49 67/28/51 66/31/52
f 55/120/53 57/127/29 64/122/54 65/117/55
f 56/33/30 116/40/56 117/34/57 60/27/58
f 58/22/59 118/29/60 119/30/61 73/21/62
f 117/34/57 118/29/60 58/22/59 60/27/58
f 62/121/63 63/118/64 65/117/55 64/122/54
f 63/118/64 62/121/63 96/128/65 95/123/66
f 66/131/52 68/150/67 71/152/68 72/126/69
f 119/30/61 120/35/70 67/28/51 73/21/62
f 69/125/71 70/153/72 105/151/73 104/89/74
f 70/153/72 69/125/71 72/126/69 71/152/68
f 76/136/22 75/135/21 77/172/75 79/170/76
f 78/48/77 126/49/78 127/45/79 80/44/80
f 79/57/76 78/48/77 82/58/81 83/168/82
f 80/44/80 127/45/79 128/46/83 86/47/84
f 83/168/82 82/58/81 102/68/85 101/75/86
f 84/109/46 85/144/45 90/70/87 92/166/88
f 86/47/84 128/46/83 129/52/89 88/53/90
f 88/53/90 129/52/89 130/60/91 91/61/92
f 91/61/92 90/164/87 94/163/93 93/71/94
f 93/71/94 94/163/93 108/158/95 107/78/96
f 95/123/66 96/128/65 101/162/86 103/160/97
f 112/74/98 113/73/99 98/80/100 100/159/101
f 98/80/100 113/73/99 114/79/102 110/85/103
f 111/76/104 112/74/98 100/159/101 103/82/97
f 104/89/74 105/151/73 106/156/105 108/83/95
f 114/79/102 115/84/106 106/90/105 110/85/103
f 21/146/107 48/143/44 52/145/47 54/148/50
f 65/117/55 18/112/7 61/116/108 55/120/53
f 34/137/23 17/129/109 36/141/28 37/139/25
f 16/93/2 33/97/24 39/103/26 41/98/34
f 11/20/110 40/13/111 38/19/31 35/26/27
f 78/48/77 80/44/80 13/54/112 82/58/81
f 49/105/43 22/100/11 45/104/38 50/108/40
f 44/8/113 8/15/114 53/23/49 51/16/48
f 74/37/115 20/42/9 71/43/68 68/154/67
f 10/62/116 88/53/90 91/61/92 93/71/94
f 60/27/58 11/20/110 35/26/27 56/33/30
f 36/141/28 17/129/109 64/122/54 57/127/29
f 82/58/81 13/54/112 99/63/117 102/68/85
f 109/72/118 10/62/116 93/71/94 107/78/96
f 72/126/69 21/146/107 54/148/50 66/131/52
f 53/23/49 8/15/114 73/21/62 67/28/51
f 75/66/21 23/67/14 81/50/119 77/171/75
f 30/132/120 76/136/22 79/170/76 83/65/82
f 89/59/121 25/107/15 84/109/46 92/166/88
f 85/144/45 26/88/122 94/77/93 90/70/87
f 100/81/101 29/87/18 95/123/66 103/160/97
f 96/128/65 30/132/120 83/65/82 101/162/86
f 26/88/122 104/89/74 108/83/95 94/77/93
f 105/124/73 27/91/17 110/157/103 106/155/105
f 22/100/11 15/94/3 43/99/36 45/104/38
f 42/7/123 2/14/124 8/15/114 44/8/113
f 73/21/62 8/15/114 2/14/124 58/22/59
f 59/115/125 19/111/6 20/42/9 74/37/115
f 110/157/103 27/91/17 28/86/16 98/161/100
f 6/55/126 10/62/116 109/72/118 97/64/127
f 6/55/126 86/47/84 88/53/90 10/62/116
f 24/102/13 25/107/15 89/59/121 87/51/128
f 42/7/123 40/13/111 11/20/110 2/14/124
f 15/94/3 16/93/2 41/98/34 43/99/36
f 81/50/119 23/67/14 24/102/13 87/51/128
f 13/54/112 80/44/80 86/47/84 6/55/126
f 99/63/117 13/54/112 6/55/126 97/64/127
f 28/86/16 29/87/18 100/81/101 98/161/100
f 18/112/7 19/111/6 59/115/125 61/116/108
f 2/14/124 11/20/110 60/27/58 58/22/59
f 32/96/20 33/97/24 16/93/2 12/92/1
f 3/130/129 17/129/109 34/137/23 31/133/19
f 64/122/54 17/129/109 3/130/129 62/121/63
f 14/113/8 18/112/7 65/117/55 63/118/64
f 71/43/68 20/42/9 9/114/10 70/119/72
f 4/147/130 21/146/107 72/126/69 69/125/71
f 46/142/41 48/143/44 21/146/107 4/147/130
f 7/101/12 22/100/11 49/105/43 47/106/42
f 32/96/20 12/92/1 23/67/14 75/66/21
f 84/109/46 25/107/15 7/101/12 47/106/42
f 46/142/41 4/147/130 26/88/122 85/144/45
f 4/147/130 69/125/71 104/89/74 26/88/122
f 70/119/72 9/114/10 27/91/17 105/124/73
f 95/123/66 29/87/18 14/113/8 63/118/64
f 62/121/63 3/130/129 30/132/120 96/128/65
f 3/130/129 31/133/19 76/136/22 30/132/120
f 37/18/25 38/19/31 121/12/32 39/11/26
f 50/10/40 125/9/39 51/16/48 52/17/47
f 55/39/53 116/40/56 56/33/30 57/32/29
f 66/31/52 67/28/51 120/35/70 68/38/67
f 77/56/75 126/49/78 78/48/77 79/57/76
f 90/164/87 91/61/92 130/60/91 92/69/88
f 101/75/86 102/68/85 111/76/104 103/82/97
f 106/90/105 115/84/106 107/78/96 108/158/95
f 99/63/117 112/74/98 111/76/104 102/68/85
f 97/64/127 113/73/99 112/74/98 99/63/117
f 114/79/102 113/73/99 97/64/127 109/72/118
f 107/78/96 115/84/106 114/79/102 109/72/118
f 117/34/57 116/40/56 55/39/53 61/41/108
f 59/36/125 118/29/60 117/34/57 61/41/108
f 119/30/61 118/29/60 59/36/125 74/149/115
f 68/38/67 120/35/70 119/30/61 74/149/115
f 122/6/33 121/12/32 38/19/31 40/13/111
f 123/2/35 122/6/33 40/13/111 42/7/123
f 124/3/37 123/2/35 42/7/123 44/8/113
f 125/9/39 124/3/37 44/8/113 51/16/48
f 127/45/79 126/49/78 77/56/75 81/169/119
f 128/46/83 127/45/79 81/169/119 87/167/128
f 129/52/89 128/46/83 87/167/128 89/165/121
f 130/60/91 129/52/89 89/165/121 92/69/88
